<svg width="873" height="1554" viewBox="0 0 873 1554" fill="none" xmlns="http://www.w3.org/2000/svg">
<path d="M764.9 1538.38H779.22V1540.14H773.1V1552.82H771.02V1540.14H764.9V1538.38Z" fill="black"/>
<path d="M778.505 1538.38H780.705L784.965 1551.06H785.005L789.445 1538.38H792.245L796.685 1551.06H796.725L800.985 1538.38H803.185L798.165 1552.82H795.285L790.865 1540.14H790.825L786.405 1552.82H783.525L778.505 1538.38Z" fill="black"/>
<path d="M815.804 1538.6C819.484 1538.6 821.324 1540.42 821.324 1542.72C821.324 1545.28 818.444 1548.02 812.744 1551.14V1551.18H821.784V1552.82H809.864V1550.98C816.664 1547.1 819.244 1544.92 819.244 1542.98C819.244 1541.36 817.884 1540.24 815.904 1540.24C813.724 1540.24 812.364 1541.32 812.364 1543.02H810.164C810.264 1540.28 812.564 1538.6 815.804 1538.6Z" fill="black"/>
<path d="M829.428 1538.6C833.588 1538.6 835.788 1541.12 835.788 1545.9C835.788 1550.68 833.588 1553.2 829.428 1553.2C825.248 1553.2 823.068 1550.66 823.068 1545.9C823.068 1541.18 825.208 1538.6 829.428 1538.6ZM825.148 1545.9C825.148 1549.56 826.628 1551.56 829.428 1551.56C832.248 1551.56 833.708 1549.54 833.708 1545.9C833.708 1542.24 832.228 1540.24 829.408 1540.24C826.668 1540.24 825.148 1542.2 825.148 1545.9Z" fill="black"/>
<path d="M843.013 1538.6C846.693 1538.6 848.533 1540.42 848.533 1542.72C848.533 1545.28 845.653 1548.02 839.953 1551.14V1551.18H848.993V1552.82H837.073V1550.98C843.873 1547.1 846.453 1544.92 846.453 1542.98C846.453 1541.36 845.093 1540.24 843.113 1540.24C840.933 1540.24 839.573 1541.32 839.573 1543.02H837.373C837.473 1540.28 839.773 1538.6 843.013 1538.6Z" fill="black"/>
<path d="M857.098 1538.6C860.318 1538.6 862.378 1540.04 862.518 1542.58H860.438C860.178 1540.92 858.958 1540.24 856.898 1540.24C854.298 1540.24 852.618 1542.06 852.558 1545.46C853.758 1544.18 855.238 1543.58 857.098 1543.58C860.258 1543.58 862.798 1545.32 862.798 1548.3C862.798 1551.34 860.538 1553.2 856.818 1553.2C852.638 1553.2 850.478 1550.8 850.478 1546.16C850.478 1541.06 852.678 1538.6 857.098 1538.6ZM852.838 1548.4C852.838 1550.32 854.558 1551.56 856.778 1551.56C858.918 1551.56 860.718 1550.4 860.718 1548.4C860.718 1546.48 859.078 1545.22 856.758 1545.22C854.618 1545.22 852.838 1546.38 852.838 1548.4Z" fill="black"/>
<path d="M867.774 1539.76C868.962 1539.76 869.85 1540.47 869.994 1541.65H869.106C868.974 1541.06 868.47 1540.65 867.786 1540.65C866.85 1540.65 866.238 1541.38 866.238 1542.49C866.238 1543.54 866.91 1544.32 867.822 1544.32C868.506 1544.32 869.01 1543.95 869.106 1543.32H869.994C869.838 1544.47 868.962 1545.21 867.822 1545.21C866.238 1545.21 865.182 1544.05 865.182 1542.49C865.182 1540.89 866.19 1539.76 867.774 1539.76ZM867.642 1537.93C870.15 1537.93 872.202 1539.94 872.202 1542.49C872.202 1545.03 870.15 1547.05 867.642 1547.05C865.062 1547.05 863.082 1544.96 863.082 1542.49C863.082 1539.98 865.098 1537.93 867.642 1537.93ZM864.138 1542.49C864.138 1544.52 865.602 1546.06 867.642 1546.06C869.694 1546.06 871.146 1544.5 871.146 1542.49C871.146 1540.52 869.766 1538.91 867.63 1538.91C865.578 1538.91 864.138 1540.47 864.138 1542.49Z" fill="black"/>
<path d="M740.461 0.979992L750.901 0.979994V2.61999L742.361 2.61999L742.121 6.97999C743.201 5.95999 744.381 5.43999 746.241 5.43999C748.821 5.43999 751.721 6.91999 751.721 10.18C751.721 13.76 748.761 15.2 745.641 15.2C742.901 15.2 739.801 14.2 739.801 11.1H742.001C742.061 12.64 743.381 13.56 745.441 13.56C747.741 13.56 749.641 12.38 749.641 10.26C749.641 8.11999 747.641 7.07999 745.581 7.07999C743.921 7.07999 742.561 7.81999 742.121 9.11999H740.101L740.461 0.979992Z" fill="black"/>
<path d="M752.886 8.59999L759.606 8.6V10.36L752.886 10.36V8.59999Z" fill="black"/>
<path d="M767.352 0.599997C770.572 0.599997 772.632 2.04 772.772 4.58H770.692C770.432 2.92 769.212 2.24 767.152 2.24C764.552 2.24 762.872 4.06 762.812 7.46C764.012 6.18 765.492 5.58 767.352 5.58C770.512 5.58 773.052 7.32 773.052 10.3C773.052 13.34 770.792 15.2 767.072 15.2C762.892 15.2 760.732 12.8 760.732 8.16C760.732 3.06 762.932 0.599996 767.352 0.599997ZM763.092 10.4C763.092 12.32 764.812 13.56 767.032 13.56C769.172 13.56 770.972 12.4 770.972 10.4C770.972 8.48 769.332 7.22 767.012 7.22C764.872 7.22 763.092 8.38 763.092 10.4Z" fill="black"/>
<path d="M796.319 4.12L794.119 4.12C793.659 2.46 792.079 1.64 789.419 1.64C785.459 1.64 783.179 4.2 783.179 7.58C783.179 10.72 785.339 13.56 789.579 13.56C791.099 13.56 792.839 13.24 794.379 12.64V8.92L789.759 8.92V7.28L796.459 7.28V13.8C794.059 14.8 791.759 15.2 789.499 15.2C783.839 15.2 780.979 11.86 780.979 7.6C780.979 4.04 783.179 -1.05956e-06 789.239 0C793.619 7.65824e-07 795.879 1.4 796.319 4.12Z" fill="black"/>
<path d="M799.258 0.380002L801.338 0.380002V14.82L799.258 14.82V0.380002Z" fill="black"/>
<path d="M804.216 0.380002L806.296 0.380003V9.12C806.296 11.86 807.976 13.56 810.936 13.56C813.916 13.56 815.576 11.86 815.576 9.12001V0.380004L817.656 0.380005V9.04001C817.656 12.84 815.156 15.2 810.936 15.2C806.716 15.2 804.216 12.84 804.216 9.04V0.380002Z" fill="black"/>
<path d="M835.63 4.12001L833.43 4.12001C832.97 2.46001 831.39 1.64001 828.73 1.64001C824.77 1.64001 822.49 4.20001 822.49 7.58001C822.49 10.72 824.65 13.56 828.89 13.56C830.41 13.56 832.15 13.24 833.69 12.64V8.92001L829.07 8.92001V7.28001L835.77 7.28001V13.8C833.37 14.8 831.07 15.2 828.81 15.2C823.15 15.2 820.29 11.86 820.29 7.60001C820.29 4.04001 822.49 5.81364e-06 828.55 6.87321e-06C832.93 7.63903e-06 835.19 1.40001 835.63 4.12001Z" fill="black"/>
<path d="M838.628 0.380009L841.468 0.380009L850.308 12.7H850.348V0.380011L852.428 0.380011V14.82H849.588L840.748 2.50001H840.708V14.82H838.628V0.380009Z" fill="black"/>
<path d="M870.942 7.60001C870.942 11.02 868.902 15.2 862.822 15.2C856.802 15.2 854.702 11.08 854.702 7.60001C854.702 4.18001 856.742 1.18025e-05 862.822 1.28655e-05C868.842 1.39181e-05 870.942 4.12001 870.942 7.60001ZM862.822 13.56C866.282 13.56 868.742 11.2 868.742 7.60001C868.742 4.08001 866.362 1.64001 862.802 1.64001C859.362 1.64001 856.902 4.02001 856.902 7.60001C856.902 11.2 859.362 13.56 862.822 13.56Z" fill="black"/>
<path d="M2.86 1538.38H4.94L4.94 1551.18H13.26V1552.82H2.86L2.86 1538.38Z" fill="black"/>
<path d="M14.4998 1538.38H16.5798L16.5798 1552.82H14.4998L14.4998 1538.38Z" fill="black"/>
<path d="M19.2178 1538.38H29.4778V1540.02H21.2978L21.2978 1544.74H29.0778V1546.38H21.2978L21.2978 1552.82H19.2178L19.2178 1538.38Z" fill="black"/>
<path d="M31.5977 1538.38H42.3977V1540.02H33.6777V1544.58H41.8377V1546.22H33.6777V1551.18H42.6377V1552.82H31.5977L31.5977 1538.38Z" fill="black"/>
<path d="M51.2847 1538.38H56.8847C62.6247 1538.38 65.5047 1540.44 65.5047 1545.76C65.5047 1550.46 62.5247 1552.82 57.2047 1552.82H51.2847L51.2847 1538.38ZM53.3647 1551.18H57.3247C61.1847 1551.18 63.3047 1549.28 63.3047 1545.6C63.3047 1541.46 61.1647 1540.02 56.7647 1540.02H53.3647L53.3647 1551.18Z" fill="black"/>
<path d="M67.9586 1538.38H78.7586V1540.02H70.0386V1544.58H78.1986V1546.22H70.0386V1551.18H78.9986V1552.82H67.9586V1538.38Z" fill="black"/>
<path d="M93.8833 1542.22H91.6833C91.5033 1540.48 89.9633 1539.64 87.1033 1539.64C85.0233 1539.64 83.2833 1540.66 83.2833 1542.26C83.2833 1543.68 84.8033 1544.02 85.7833 1544.18L90.8233 1545.04C93.7633 1545.54 94.3433 1547.26 94.3433 1548.58C94.3433 1551.46 91.7633 1553.2 87.4833 1553.2C83.3233 1553.2 81.0033 1551.64 80.7433 1548.5H82.9433C83.0033 1550.44 84.8633 1551.56 87.6033 1551.56C90.5433 1551.56 92.2633 1550.42 92.2633 1548.8C92.2633 1546.78 89.4233 1546.7 86.6033 1546.34C83.4033 1545.94 81.2033 1545.12 81.2033 1542.34C81.2033 1539.66 83.5033 1538 87.5033 1538C91.2833 1538 93.7233 1539.38 93.8833 1542.22Z" fill="black"/>
<path d="M96.4123 1538.38H98.4923L98.4923 1552.82H96.4123V1538.38Z" fill="black"/>
<path d="M116.23 1542.12H114.03C113.57 1540.46 111.99 1539.64 109.33 1539.64C105.37 1539.64 103.09 1542.2 103.09 1545.58C103.09 1548.72 105.25 1551.56 109.49 1551.56C111.01 1551.56 112.75 1551.24 114.29 1550.64V1546.92H109.67V1545.28H116.37V1551.8C113.97 1552.8 111.67 1553.2 109.41 1553.2C103.75 1553.2 100.89 1549.86 100.89 1545.6C100.89 1542.04 103.09 1538 109.15 1538C113.53 1538 115.79 1539.4 116.23 1542.12Z" fill="black"/>
<path d="M119.229 1538.38H122.069L130.909 1550.7H130.949V1538.38H133.029V1552.82H130.189L121.349 1540.5H121.309V1552.82H119.229V1538.38Z" fill="black"/>
<path d="M141.925 1538.38H152.185V1540.02H144.005V1544.74H151.785V1546.38H144.005V1552.82H141.925V1538.38Z" fill="black"/>
<path d="M154.305 1538.38H165.105V1540.02H156.385V1544.58H164.545V1546.22H156.385V1551.18H165.345V1552.82H154.305L154.305 1538.38Z" fill="black"/>
<path d="M180.229 1542.22H178.029C177.849 1540.48 176.309 1539.64 173.449 1539.64C171.369 1539.64 169.629 1540.66 169.629 1542.26C169.629 1543.68 171.149 1544.02 172.129 1544.18L177.169 1545.04C180.109 1545.54 180.689 1547.26 180.689 1548.58C180.689 1551.46 178.109 1553.2 173.829 1553.2C169.669 1553.2 167.349 1551.64 167.089 1548.5H169.289C169.349 1550.44 171.209 1551.56 173.949 1551.56C176.889 1551.56 178.609 1550.42 178.609 1548.8C178.609 1546.78 175.769 1546.7 172.949 1546.34C169.749 1545.94 167.549 1545.12 167.549 1542.34C167.549 1539.66 169.849 1538 173.849 1538C177.629 1538 180.069 1539.38 180.229 1542.22Z" fill="black"/>
<path d="M181.078 1538.38H195.398V1540.14H189.278V1552.82H187.198V1540.14H181.078V1538.38Z" fill="black"/>
<path d="M196.363 1538.38H198.443V1552.82H196.363V1538.38Z" fill="black"/>
<path d="M199.401 1538.38H201.701L207.361 1551.06L213.001 1538.38H215.201L208.561 1552.82H206.021L199.401 1538.38Z" fill="black"/>
<path d="M221.188 1538.38H223.627L231.047 1552.82H228.667L226.807 1549.06H217.947L216.087 1552.82H213.767L221.188 1538.38ZM222.408 1540.14L218.787 1547.42H226.007L222.408 1540.14Z" fill="black"/>
<path d="M232.501 1538.38H234.581V1551.18H242.901V1552.82H232.501V1538.38Z" fill="black"/>
<path d="M0.599999 220.075L0.599999 217.595H9.52L9.52 214.515H11.16V217.595H14.44V219.555H11.16V228.035H8.92L0.599999 220.075ZM9.52 219.555H2.36L9.46 226.275H9.52V219.555Z" fill="black"/>
<path d="M0.22 207.671C0.22 203.511 2.74 201.311 7.52 201.311C12.3 201.311 14.82 203.511 14.82 207.671C14.82 211.851 12.28 214.031 7.52 214.031C2.8 214.031 0.22 211.891 0.22 207.671ZM7.52 211.951C11.18 211.951 13.18 210.471 13.18 207.671C13.18 204.851 11.16 203.391 7.52 203.391C3.86 203.391 1.86 204.871 1.86 207.691C1.86 210.431 3.82 211.951 7.52 211.951Z" fill="black"/>
<path d="M0.22 197.466C0.22 195.886 1.5 194.606 3.08 194.606C4.66 194.606 5.94 195.886 5.94 197.466C5.94 199.046 4.66 200.326 3.08 200.326C1.48 200.326 0.22 199.026 0.22 197.466ZM3.08 199.286C4.06 199.286 4.9 198.486 4.9 197.466C4.9 196.486 4.1 195.646 3.08 195.646C2.1 195.646 1.26 196.446 1.26 197.466C1.26 198.446 2.06 199.286 3.08 199.286Z" fill="black"/>
<path d="M0.22 187.778C0.22 184.018 1.6 181.838 4.1 181.838C5.68 181.838 6.96 182.878 7.28 184.658H7.32C7.68 182.558 8.88 181.378 10.7 181.378C13.34 181.378 14.82 183.638 14.82 187.818C14.82 191.398 13.38 193.418 10.78 193.498V191.418C12.3 191.378 13.18 189.898 13.18 187.678C13.18 185.318 12.34 183.458 10.62 183.458C8.98 183.458 8.12 184.958 8.12 188.138V189.058H6.48V188.178C6.48 186.958 6.4 183.798 4.22 183.798C2.82 183.798 1.86 185.258 1.86 187.358C1.86 189.438 2.54 191.018 4.02 191.038V193.118C1.78 193.118 0.22 190.738 0.22 187.778Z" fill="black"/>
<path d="M0.22 173.654C0.22 170.274 1.4 167.914 3.98 167.914C5.54 167.914 6.88 169.234 7.22 171.154H7.26C7.5 168.854 8.98 167.414 10.74 167.414C13.44 167.414 14.82 170.154 14.82 173.654C14.82 177.294 13.36 179.894 10.74 179.894C8.98 179.894 7.5 178.454 7.26 176.294H7.22C6.88 178.194 5.5 179.474 3.98 179.474C1.56 179.474 0.22 177.374 0.22 173.654ZM4.14 177.394C5.5 177.394 6.48 175.734 6.48 173.654C6.48 171.614 5.48 169.994 4.16 169.994C2.72 169.994 1.86 171.274 1.86 173.674C1.86 175.914 2.62 177.394 4.14 177.394ZM10.66 177.814C12.16 177.814 13.18 176.134 13.18 173.654C13.18 171.214 12.12 169.614 10.66 169.614C9.3 169.614 8.12 171.094 8.12 173.674C8.12 176.114 9.16 177.814 10.66 177.814Z" fill="black"/>
<path d="M0.16 164.089L0.16 162.289L5.32 165.509V166.669L0.16 164.089Z" fill="black"/>
<path d="M0.6 156.6V154.7H14.44V156.78H2.72C3.74 157.84 4.48 159.18 5.04 160.86H3.18C2.58 159.26 1.62 157.64 0.6 156.6Z" fill="black"/>
<path d="M0.22 143.516C0.220001 139.756 1.6 137.576 4.1 137.576C5.68 137.576 6.96 138.616 7.28 140.396H7.32C7.68 138.296 8.88 137.116 10.7 137.116C13.34 137.116 14.82 139.376 14.82 143.556C14.82 147.136 13.38 149.156 10.78 149.236V147.156C12.3 147.116 13.18 145.636 13.18 143.416C13.18 141.056 12.34 139.196 10.62 139.196C8.98 139.196 8.12 140.696 8.12 143.876V144.796H6.48V143.916C6.48 142.696 6.4 139.536 4.22 139.536C2.82 139.536 1.86 140.996 1.86 143.096C1.86 145.176 2.54 146.756 4.02 146.776V148.856C1.78 148.856 0.22 146.476 0.22 143.516Z" fill="black"/>
<path d="M0.16 129.911L0.16 128.111L5.32 131.331V132.491L0.16 129.911ZM0.16 133.431L0.16 131.631L5.32 134.851V136.011L0.16 133.431Z" fill="black"/>
<path d="M0 121.645L3.38669e-08 118.805L12.32 109.965V109.925H1.39759e-07L1.64563e-07 107.845H14.44V110.685L2.12 119.525V119.565H14.44V121.645H0Z" fill="black"/>
<path d="M0.600001 93.4684V91.5684H14.44V93.6484H2.72C3.74 94.7084 4.48 96.0484 5.04 97.7284H3.18C2.58 96.1284 1.62 94.5084 0.600001 93.4684Z" fill="black"/>
<path d="M0.600001 85.0037L0.600001 74.5637H2.24V83.1037L6.6 83.3438C5.58 82.2638 5.06 81.0837 5.06 79.2237C5.06 76.6437 6.54 73.7437 9.8 73.7437C13.38 73.7437 14.82 76.7037 14.82 79.8237C14.82 82.5637 13.82 85.6637 10.72 85.6637V83.4637C12.26 83.4037 13.18 82.0838 13.18 80.0238C13.18 77.7238 12 75.8237 9.88 75.8237C7.74 75.8237 6.7 77.8238 6.7 79.8838C6.7 81.5438 7.44 82.9037 8.74 83.3438V85.3637L0.600001 85.0037Z" fill="black"/>
<path d="M0.220001 69.6591C0.220001 68.0791 1.5 66.7991 3.08 66.7991C4.66 66.7991 5.94 68.0791 5.94 69.6591C5.94 71.2391 4.66 72.5191 3.08 72.5191C1.48 72.5191 0.220001 71.2191 0.220001 69.6591ZM3.08 71.4791C4.06 71.4791 4.9 70.6791 4.9 69.6591C4.9 68.6791 4.1 67.8391 3.08 67.8391C2.1 67.8391 1.26 68.6391 1.26 69.6591C1.26 70.6391 2.06 71.4791 3.08 71.4791Z" fill="black"/>
<path d="M0.600001 58.2512V55.7712H9.52V52.6912H11.16V55.7712H14.44V57.7312H11.16V66.2112H8.92L0.600001 58.2512ZM9.52 57.7312H2.36L9.46 64.4512H9.52V57.7312Z" fill="black"/>
<path d="M0.220002 45.8465C0.220002 42.4665 1.4 40.1066 3.98 40.1066C5.54 40.1066 6.88 41.4266 7.22 43.3465H7.26C7.5 41.0466 8.98 39.6066 10.74 39.6066C13.44 39.6066 14.82 42.3465 14.82 45.8465C14.82 49.4865 13.36 52.0866 10.74 52.0866C8.98 52.0866 7.5 50.6466 7.26 48.4866H7.22C6.88 50.3866 5.5 51.6665 3.98 51.6665C1.56 51.6665 0.220002 49.5665 0.220002 45.8465ZM4.14 49.5866C5.5 49.5866 6.48 47.9265 6.48 45.8465C6.48 43.8065 5.48 42.1866 4.16 42.1866C2.72 42.1866 1.86 43.4666 1.86 45.8666C1.86 48.1066 2.62 49.5866 4.14 49.5866ZM10.66 50.0065C12.16 50.0065 13.18 48.3266 13.18 45.8465C13.18 43.4065 12.12 41.8066 10.66 41.8066C9.3 41.8066 8.12 43.2866 8.12 45.8666C8.12 48.3066 9.16 50.0065 10.66 50.0065Z" fill="black"/>
<path d="M0.160001 36.2819L0.160001 34.4819L5.32 37.7019V38.8619L0.160001 36.2819Z" fill="black"/>
<path d="M0.220002 28.7934C0.220002 24.6334 2.74 22.4334 7.52 22.4334C12.3 22.4334 14.82 24.6334 14.82 28.7934C14.82 32.9734 12.28 35.1534 7.52 35.1534C2.8 35.1534 0.220002 33.0134 0.220002 28.7934ZM7.52 33.0734C11.18 33.0734 13.18 31.5934 13.18 28.7934C13.18 25.9734 11.16 24.5134 7.52 24.5134C3.86 24.5134 1.86 25.9934 1.86 28.8134C1.86 31.5534 3.82 33.0734 7.52 33.0734Z" fill="black"/>
<path d="M0.600002 21.2487L0.600002 9.70874H2.36L14.44 16.2087V18.6487L2.36 11.9087V21.2487H0.600002Z" fill="black"/>
<path d="M0.160002 2.10405L0.160002 0.304054L5.32 3.52405V4.68405L0.160002 2.10405ZM0.160002 5.62405L0.160002 3.82405L5.32 7.04405V8.20405L0.160002 5.62405Z" fill="black"/>
</svg>
