<svg width="920" height="1600" viewBox="0 0 920 1600" fill="none" xmlns="http://www.w3.org/2000/svg">
<path d="M51.0601 30.78C51.0601 35.72 48.1001 38.38 42.6401 38.38C37.1801 38.38 34.2201 35.72 34.2201 30.78C34.2201 25.84 37.2001 23.18 42.6401 23.18C48.0801 23.18 51.0601 25.84 51.0601 30.78ZM42.6401 36.02C45.8201 36.02 47.7001 34.14 47.7001 30.78C47.7001 27.44 45.8601 25.54 42.6001 25.54C39.5001 25.54 37.5801 27.42 37.5801 30.78C37.5801 34.14 39.5001 36.02 42.6401 36.02ZM68.6575 28.22L65.2975 28.22C65.2175 26.38 63.3775 25.42 61.4975 25.42C58.3975 25.42 55.6575 27.04 55.6575 30.72C55.6575 33.98 57.6775 36.02 61.5375 36.02C62.7575 36.02 63.9175 35.86 65.4975 35.36L65.4975 32.6L60.8775 32.6L60.8775 30.36L68.6575 30.36L68.6575 37.1C66.8975 37.88 63.6975 38.38 61.3375 38.38C55.6175 38.38 52.2975 35.7 52.2975 30.76C52.2975 26.18 55.6175 23.18 61.0375 23.18C65.6975 23.18 68.6575 25.04 68.6575 28.22ZM70.9153 23.56L75.4753 23.56L83.6553 34.64L83.6953 34.64L83.6953 23.56L86.6153 23.56L86.6153 38L82.2553 38L73.8753 26.72L73.8353 26.72L73.8353 38L70.9153 38L70.9153 23.56ZM89.2731 23.56L92.5131 23.56L92.5131 38L89.2731 38L89.2731 23.56ZM117.178 28.22L113.818 28.22C113.738 26.38 111.898 25.42 110.018 25.42C106.918 25.42 104.178 27.04 104.178 30.72C104.178 33.98 106.198 36.02 110.058 36.02C111.278 36.02 112.438 35.86 114.018 35.36L114.018 32.6L109.398 32.6L109.398 30.36L117.178 30.36L117.178 37.1C115.418 37.88 112.218 38.38 109.858 38.38C104.138 38.38 100.818 35.7 100.818 30.76C100.818 26.18 104.138 23.18 109.558 23.18C114.218 23.18 117.178 25.04 117.178 28.22ZM119.376 23.56L130.816 23.56L130.816 25.92L122.616 25.92L122.616 29.32L130.516 29.32L130.516 31.68L122.616 31.68L122.616 35.64L131.176 35.64L131.176 38L119.376 38L119.376 23.56ZM145.88 27.88L142.64 27.88C142.52 26.1 141.38 25.32 138.98 25.32C137.6 25.32 136.16 26 136.16 27.3C136.16 28.3 136.8 28.86 138.26 29.06L142.4 29.64C145.22 30.04 146.56 31.56 146.56 33.64C146.56 36.68 143.9 38.38 139.1 38.38C134.86 38.38 132.3 36.54 132.3 33.48L135.54 33.48C135.74 35.32 137.12 36.24 139.54 36.24C142.14 36.24 143.2 35.14 143.2 34.04C143.2 33.02 142.5 32.52 140.84 32.3L137.88 31.9C134.46 31.44 132.8 30.04 132.8 27.86C132.8 24.74 135.58 23.18 139.28 23.18C143.28 23.18 145.76 24.78 145.88 27.88ZM146.668 23.56L160.908 23.56L160.908 25.92L155.408 25.92L155.408 38L152.168 38L152.168 25.92L146.668 25.92L146.668 23.56ZM177.819 30.78C177.819 35.72 174.859 38.38 169.399 38.38C163.939 38.38 160.979 35.72 160.979 30.78C160.979 25.84 163.959 23.18 169.399 23.18C174.839 23.18 177.819 25.84 177.819 30.78ZM169.399 36.02C172.579 36.02 174.459 34.14 174.459 30.78C174.459 27.44 172.619 25.54 169.359 25.54C166.259 25.54 164.339 27.42 164.339 30.78C164.339 34.14 166.259 36.02 169.399 36.02ZM185.758 23.56L188.998 23.56L188.998 35.64L196.938 35.64L196.938 38L185.758 38L185.758 23.56ZM203.758 23.56L207.838 23.56L215.218 38L211.378 38L209.718 34.76L201.398 34.76L199.878 38L196.398 38L203.758 23.56ZM205.558 26.12L202.558 32.4L208.558 32.4L205.558 26.12ZM228.836 27.88L225.596 27.88C225.476 26.1 224.336 25.32 221.936 25.32C220.556 25.32 219.116 26 219.116 27.3C219.116 28.3 219.756 28.86 221.216 29.06L225.356 29.64C228.176 30.04 229.516 31.56 229.516 33.64C229.516 36.68 226.856 38.38 222.056 38.38C217.816 38.38 215.256 36.54 215.256 33.48L218.496 33.48C218.696 35.32 220.076 36.24 222.496 36.24C225.096 36.24 226.156 35.14 226.156 34.04C226.156 33.02 225.456 32.52 223.796 32.3L220.836 31.9C217.416 31.44 215.756 30.04 215.756 27.86C215.756 24.74 218.536 23.18 222.236 23.18C226.236 23.18 228.716 24.78 228.836 27.88ZM245.885 28.14L242.525 28.14C242.485 26.58 240.805 25.54 238.705 25.54C236.585 25.54 233.925 26.84 233.925 30.78C233.925 34.56 236.425 36.02 238.705 36.02C240.925 36.02 242.445 34.98 242.705 33.38L246.065 33.38C245.865 36.72 242.965 38.38 238.485 38.38C233.445 38.38 230.565 35.64 230.565 30.78C230.565 25.96 233.625 23.18 238.665 23.18C242.505 23.18 245.785 24.76 245.885 28.14ZM247.998 23.56L251.238 23.56L251.238 38L247.998 38L247.998 23.56ZM259.7 23.56L263.78 23.56L271.16 38L267.32 38L265.66 34.76L257.34 34.76L255.82 38L252.34 38L259.7 23.56ZM261.5 26.12L258.5 32.4L264.5 32.4L261.5 26.12ZM278.021 23.56L281.261 23.56L281.261 32.38C281.261 34.68 282.701 36.14 285.281 36.14C287.921 36.14 289.281 34.74 289.281 32.3L289.281 23.56L292.521 23.56L292.521 32.32C292.521 36.44 290.081 38.38 284.801 38.38C281.241 38.38 278.021 36.58 278.021 32.82L278.021 23.56ZM294.734 23.56L299.294 23.56L307.474 34.64L307.514 34.64L307.514 23.56L310.434 23.56L310.434 38L306.074 38L297.694 26.72L297.654 26.72L297.654 38L294.734 38L294.734 23.56ZM318.592 23.56L322.672 23.56L330.052 38.0001L326.212 38.0001L324.552 34.7601L316.232 34.76L314.712 38L311.232 38L318.592 23.56ZM320.392 26.12L317.392 32.4L323.392 32.4001L320.392 26.12ZM334.81 23.5601L349.05 23.5601L349.05 25.9201L343.55 25.9201L343.55 38.0001L340.31 38.0001L340.31 25.9201L334.81 25.9201L334.81 23.5601ZM350.094 23.5601L358.754 23.5601C362.354 23.5601 364.314 24.8601 364.314 27.4401C364.314 29.6601 362.954 30.9601 360.334 31.1601L360.334 31.2001C363.234 31.3201 363.774 32.5001 363.974 34.4801C364.094 35.6201 364.054 36.9001 364.494 38.0001L361.014 38.0001C360.854 37.6001 360.754 36.8601 360.694 35.7201C360.554 33.0401 360.054 32.3001 356.854 32.3001L353.334 32.3001L353.334 38.0001L350.094 38.0001L350.094 23.5601ZM353.334 30.0601L357.594 30.0601C359.874 30.0601 360.954 29.3801 360.954 27.9001C360.954 26.5601 360.074 25.9201 357.794 25.9201L353.334 25.9201L353.334 30.0601ZM372.288 23.5601L376.368 23.5601L383.748 38.0001L379.908 38.0001L378.248 34.7601L369.928 34.7601L368.408 38.0001L364.928 38.0001L372.288 23.5601ZM374.088 26.1201L371.088 32.4001L377.088 32.4001L374.088 26.1201ZM398.798 28.1401L395.438 28.1401C395.398 26.5801 393.718 25.5401 391.618 25.5401C389.498 25.5401 386.838 26.8401 386.838 30.7801C386.838 34.5601 389.338 36.0201 391.618 36.0201C393.838 36.0201 395.358 34.9801 395.618 33.3801L398.978 33.3801C398.778 36.7201 395.878 38.3801 391.398 38.3801C386.358 38.3801 383.478 35.6401 383.478 30.7801C383.478 25.9601 386.538 23.1801 391.578 23.1801C395.418 23.1801 398.698 24.7601 398.798 28.1401ZM415.371 28.1401L412.011 28.1401C411.971 26.5801 410.291 25.5401 408.191 25.5401C406.071 25.5401 403.411 26.8401 403.411 30.7801C403.411 34.5601 405.911 36.0201 408.191 36.0201C410.411 36.0201 411.931 34.9801 412.191 33.3801L415.551 33.3801C415.351 36.7201 412.451 38.3801 407.971 38.3801C402.931 38.3801 400.051 35.6401 400.051 30.7801C400.051 25.9601 403.111 23.1801 408.151 23.1801C411.991 23.1801 415.271 24.7601 415.371 28.1401ZM417.485 23.5601L420.725 23.5601L420.725 38.0001L417.485 38.0001L417.485 23.5601ZM429.187 23.5601L433.267 23.5601L440.647 38.0001L436.807 38.0001L435.147 34.7601L426.827 34.7601L425.307 38.0001L421.827 38.0001L429.187 23.5601ZM430.987 26.1201L427.987 32.4001L433.987 32.4001L430.987 26.1201ZM441.965 35.2001L444.765 35.2001L444.765 38.0001L441.965 38.0001L441.965 35.2001ZM45.9761 46.488L44.1201 46.488C43.8801 45.208 42.7921 44.456 40.8721 44.456C38.0401 44.456 36.2641 46.168 36.2641 49.224C36.2641 52.28 38.0401 53.992 40.8721 53.992C42.6641 53.992 44.0241 53.144 44.2801 51.784L46.1361 51.784C45.8161 54.04 43.8001 55.304 40.5521 55.304C36.3601 55.304 34.5041 52.344 34.5041 49.224C34.5041 46.52 36.1201 43.144 41.0001 43.144C43.6881 43.144 45.8321 44.488 45.9761 46.488ZM47.7792 43.448L53.4112 43.448C56.6912 43.448 57.8272 44.392 57.8272 46.472C57.8272 47.96 56.7712 48.968 55.1872 49.192L55.1872 49.224C56.8032 49.432 57.1712 50.072 57.4912 52.2L57.5712 52.712C57.7312 53.768 57.9072 54.52 58.1152 55L56.3552 55C56.1952 54.552 56.0992 54.072 55.9392 53.176L55.7632 52.2C55.6192 51.432 55.5072 50.84 55.2192 50.536C54.7232 50.008 53.9072 49.848 52.5312 49.848L49.4432 49.848L49.4432 55L47.7792 55L47.7792 43.448ZM49.4432 48.536L53.2832 48.536C55.1712 48.536 56.0672 47.992 56.0672 46.648C56.0672 45.224 55.2672 44.76 53.2992 44.76L49.4432 44.76L49.4432 48.536ZM60.0425 43.448L68.6825 43.448L68.6825 44.76L61.7065 44.76L61.7065 48.408L68.2345 48.408L68.2345 49.72L61.7065 49.72L61.7065 53.688L68.8745 53.688L68.8745 55L60.0425 55L60.0425 43.448ZM70.8302 43.448L75.3102 43.448C79.9022 43.448 82.2062 45.096 82.2062 49.352C82.2062 53.112 79.8222 55 75.5662 55L70.8302 55L70.8302 43.448ZM72.4942 53.688L75.6622 53.688C78.7502 53.688 80.4462 52.168 80.4462 49.224C80.4462 45.912 78.7342 44.76 75.2142 44.76L72.4942 44.76L72.4942 53.688ZM83.9774 43.448L85.6414 43.448L85.6414 55L83.9774 55L83.9774 43.448ZM92.3437 43.448L94.2957 43.448L100.232 55L98.3277 55L96.8397 51.992L89.7517 51.992L88.2637 55L86.4077 55L92.3437 43.448ZM93.3197 44.856L90.4237 50.68L96.1997 50.68L93.3197 44.856ZM101.187 43.448L103.843 43.448L108.931 53.592L114.019 43.448L116.675 43.448L116.675 55L115.011 55L115.011 44.632L114.979 44.632L109.811 55L108.051 55L102.883 44.632L102.851 44.632L102.851 55L101.187 55L101.187 43.448ZM131.628 49.224C131.628 51.96 129.996 55.304 125.132 55.304C120.316 55.304 118.636 52.008 118.636 49.224C118.636 46.488 120.268 43.144 125.132 43.144C129.948 43.144 131.628 46.44 131.628 49.224ZM125.132 53.992C127.9 53.992 129.868 52.104 129.868 49.224C129.868 46.408 127.964 44.456 125.116 44.456C122.364 44.456 120.396 46.36 120.396 49.224C120.396 52.104 122.364 53.992 125.132 53.992ZM149.805 46.488L147.949 46.488C147.709 45.208 146.621 44.456 144.701 44.456C141.869 44.456 140.093 46.168 140.093 49.224C140.093 52.28 141.869 53.992 144.701 53.992C146.493 53.992 147.853 53.144 148.109 51.784L149.965 51.784C149.645 54.04 147.629 55.304 144.381 55.304C140.189 55.304 138.333 52.344 138.333 49.224C138.333 46.52 139.949 43.144 144.829 43.144C147.517 43.144 149.661 44.488 149.805 46.488ZM151.8 43.448L153.464 43.448L153.464 48.312L160.888 48.312L160.888 43.448L162.552 43.448L162.552 55L160.888 55L160.888 49.624L153.464 49.624L153.464 55L151.8 55L151.8 43.448ZM165.043 43.448L173.683 43.448L173.683 44.76L166.707 44.76L166.707 48.408L173.235 48.408L173.235 49.72L166.707 49.72L166.707 53.688L173.875 53.688L173.875 55L165.043 55L165.043 43.448ZM181.097 43.448L182.761 43.448L182.761 53.688L189.417 53.688L189.417 55L181.097 55L181.097 43.448ZM195.001 43.448L196.953 43.448L202.889 55L200.985 55L199.497 51.992L192.409 51.992L190.921 55L189.065 55L195.001 43.448ZM195.977 44.856L193.081 50.68L198.857 50.68L195.977 44.856ZM207.27 43.448L209.11 43.448L213.638 53.592L218.15 43.448L219.91 43.448L214.598 55L212.566 55L207.27 43.448ZM220.685 43.448L222.349 43.448L222.349 55L220.685 55L220.685 43.448ZM223.115 43.448L234.571 43.448L234.571 44.856L229.675 44.856L229.675 55L228.011 55L228.011 44.856L223.115 44.856L223.115 43.448ZM239.357 43.448L241.309 43.448L247.245 55L245.341 55L243.853 51.992L236.765 51.992L235.277 55L233.421 55L239.357 43.448ZM240.333 44.856L237.437 50.68L243.213 50.68L240.333 44.856ZM263.018 46.52L261.258 46.52C261.114 45.128 259.882 44.456 257.594 44.456C255.93 44.456 254.538 45.272 254.538 46.552C254.538 47.688 255.754 47.96 256.538 48.088L260.57 48.776C262.922 49.176 263.386 50.552 263.386 51.608C263.386 53.912 261.322 55.304 257.898 55.304C254.57 55.304 252.714 54.056 252.506 51.544L254.266 51.544C254.314 53.096 255.802 53.992 257.994 53.992C260.346 53.992 261.722 53.08 261.722 51.784C261.722 50.168 259.45 50.104 257.194 49.816C254.634 49.496 252.874 48.84 252.874 46.616C252.874 44.472 254.714 43.144 257.914 43.144C260.938 43.144 262.89 44.248 263.018 46.52ZM265.041 43.448L266.705 43.448L266.705 55L265.041 55L265.041 43.448ZM273.407 43.448L275.359 43.448L281.295 55L279.391 55L277.903 51.992L270.815 51.992L269.327 55L267.471 55L273.407 43.448ZM274.383 44.856L271.487 50.68L277.263 50.68L274.383 44.856ZM287.212 43.448L288.876 43.448L288.876 50.44C288.876 52.632 290.22 53.992 292.588 53.992C294.972 53.992 296.3 52.632 296.3 50.44L296.3 43.448L297.964 43.448L297.964 50.376C297.964 53.416 295.964 55.304 292.588 55.304C289.212 55.304 287.212 53.416 287.212 50.376L287.212 43.448ZM300.312 43.448L302.584 43.448L309.656 53.304L309.688 53.304L309.688 43.448L311.352 43.448L311.352 55L309.08 55L302.008 45.144L301.976 45.144L301.976 55L300.312 55L300.312 43.448ZM318.099 43.448L320.051 43.448L325.987 55.0001L324.083 55.0001L322.595 51.9921L315.507 51.992L314.019 55L312.163 55L318.099 43.448ZM319.075 44.856L316.179 50.68L321.955 50.6801L319.075 44.856ZM341.76 46.5201L340 46.5201C339.856 45.1281 338.624 44.4561 336.336 44.4561C334.672 44.4561 333.28 45.2721 333.28 46.5521C333.28 47.6881 334.496 47.9601 335.28 48.0881L339.312 48.7761C341.664 49.1761 342.128 50.5521 342.128 51.6081C342.128 53.9121 340.064 55.3041 336.64 55.3041C333.312 55.3041 331.456 54.0561 331.248 51.5441L333.008 51.5441C333.056 53.0961 334.544 53.9921 336.736 53.9921C339.088 53.9921 340.464 53.0801 340.464 51.7841C340.464 50.1681 338.192 50.1041 335.936 49.8161C333.376 49.4961 331.616 48.8401 331.616 46.6161C331.616 44.4721 333.456 43.1441 336.656 43.1441C339.68 43.1441 341.632 44.2481 341.76 46.5201ZM343.975 43.4481L345.639 43.4481L345.639 50.4401C345.639 52.6321 346.983 53.9921 349.351 53.9921C351.735 53.9921 353.063 52.6321 353.063 50.4401L353.063 43.4481L354.727 43.4481L354.727 50.3761C354.727 53.4161 352.727 55.3041 349.351 55.3041C345.975 55.3041 343.975 53.4161 343.975 50.3761L343.975 43.4481ZM357.426 43.4481L362.738 43.4481C366.05 43.4481 367.378 44.3761 367.378 46.5681C367.378 48.7441 365.842 49.9281 363.282 49.9281L359.09 49.9281L359.09 55.0001L357.426 55.0001L357.426 43.4481ZM359.09 48.6161L362.834 48.6161C364.69 48.6161 365.618 47.9921 365.618 46.5681C365.618 45.4161 365.026 44.7601 362.738 44.7601L359.09 44.7601L359.09 48.6161ZM369.289 43.4481L377.929 43.4481L377.929 44.7601L370.953 44.7601L370.953 48.4081L377.481 48.4081L377.481 49.7201L370.953 49.7201L370.953 53.6881L378.121 53.6881L378.121 55.0001L369.289 55.0001L369.289 43.4481ZM379.981 43.4481L385.613 43.4481C388.893 43.4481 390.029 44.3921 390.029 46.4721C390.029 47.9601 388.973 48.9681 387.389 49.1921L387.389 49.2241C389.005 49.4321 389.373 50.0721 389.693 52.2001L389.773 52.7121C389.933 53.7681 390.109 54.5201 390.317 55.0001L388.557 55.0001C388.397 54.5521 388.301 54.0721 388.141 53.1761L387.965 52.2001C387.821 51.4321 387.709 50.8401 387.421 50.5361C386.925 50.0081 386.109 49.8481 384.733 49.8481L381.645 49.8481L381.645 55.0001L379.981 55.0001L379.981 43.4481ZM381.645 48.5361L385.485 48.5361C387.373 48.5361 388.269 47.9921 388.269 46.6481C388.269 45.2241 387.469 44.7601 385.501 44.7601L381.645 44.7601L381.645 48.5361ZM392.052 43.4481L400.26 43.4481L400.26 44.7601L393.716 44.7601L393.716 48.5361L399.94 48.5361L399.94 49.8481L393.716 49.8481L393.716 55.0001L392.052 55.0001L392.052 43.4481ZM401.764 43.4481L403.428 43.4481L403.428 55.0001L401.764 55.0001L401.764 43.4481ZM416.979 46.4881L415.123 46.4881C414.883 45.2081 413.795 44.4561 411.875 44.4561C409.043 44.4561 407.267 46.1681 407.267 49.2241C407.267 52.2801 409.043 53.9921 411.875 53.9921C413.667 53.9921 415.027 53.1441 415.283 51.7841L417.139 51.7841C416.819 54.0401 414.803 55.3041 411.555 55.3041C407.363 55.3041 405.507 52.3441 405.507 49.2241C405.507 46.5201 407.123 43.1441 412.003 43.1441C414.691 43.1441 416.835 44.4881 416.979 46.4881ZM418.782 43.4481L420.446 43.4481L420.446 55.0001L418.782 55.0001L418.782 43.4481ZM422.748 43.4481L431.388 43.4481L431.388 44.7601L424.412 44.7601L424.412 48.4081L430.94 48.4081L430.94 49.7201L424.412 49.7201L424.412 53.6881L431.58 53.6881L431.58 55.0001L422.748 55.0001L422.748 43.4481ZM34.6321 60.448L39.1121 60.448C43.7041 60.448 46.0081 62.096 46.0081 66.352C46.0081 70.112 43.6241 72 39.3681 72L34.6321 72L34.6321 60.448ZM36.2961 70.688L39.4641 70.688C42.5521 70.688 44.2481 69.168 44.2481 66.224C44.2481 62.912 42.5361 61.76 39.0161 61.76L36.2961 61.76L36.2961 70.688ZM52.1837 60.448L54.1357 60.448L60.0717 72L58.1677 72L56.6797 68.992L49.5917 68.992L48.1037 72L46.2477 72L52.1837 60.448ZM53.1597 61.856L50.2637 67.68L56.0397 67.68L53.1597 61.856ZM65.8927 60.448L70.3727 60.448C74.9647 60.448 77.2687 62.096 77.2687 66.352C77.2687 70.112 74.8847 72 70.6287 72L65.8927 72L65.8927 60.448ZM67.5567 70.688L70.7247 70.688C73.8127 70.688 75.5087 69.168 75.5087 66.224C75.5087 62.912 73.7967 61.76 70.2767 61.76L67.5567 61.76L67.5567 70.688ZM79.0399 60.448L80.7039 60.448L80.7039 72L79.0399 72L79.0399 60.448ZM92.8622 63.52L91.1022 63.52C90.9582 62.128 89.7262 61.456 87.4382 61.456C85.7742 61.456 84.3822 62.272 84.3822 63.552C84.3822 64.688 85.5982 64.96 86.3822 65.088L90.4142 65.776C92.7662 66.176 93.2302 67.552 93.2302 68.608C93.2302 70.912 91.1662 72.304 87.7422 72.304C84.4142 72.304 82.5582 71.056 82.3502 68.544L84.1102 68.544C84.1582 70.096 85.6462 70.992 87.8382 70.992C90.1902 70.992 91.5662 70.08 91.5662 68.784C91.5662 67.168 89.2942 67.104 87.0382 66.816C84.4782 66.496 82.7182 65.84 82.7182 63.616C82.7182 61.472 84.5582 60.144 87.7582 60.144C90.7822 60.144 92.7342 61.248 92.8622 63.52ZM95.0775 60.448L103.717 60.448L103.717 61.76L96.7415 61.76L96.7415 65.408L103.269 65.408L103.269 66.72L96.7415 66.72L96.7415 70.688L103.909 70.688L103.909 72L95.0775 72L95.0775 60.448ZM117.849 63.44L116.089 63.44C115.721 62.112 114.457 61.456 112.329 61.456C109.161 61.456 107.337 63.504 107.337 66.208C107.337 68.72 109.065 70.992 112.457 70.992C113.673 70.992 115.065 70.736 116.297 70.256L116.297 67.28L112.601 67.28L112.601 65.968L117.961 65.968L117.961 71.184C116.041 71.984 114.201 72.304 112.393 72.304C107.865 72.304 105.577 69.632 105.577 66.224C105.577 63.376 107.337 60.144 112.185 60.144C115.689 60.144 117.497 61.264 117.849 63.44ZM120.248 60.448L122.52 60.448L129.592 70.304L129.624 70.304L129.624 60.448L131.288 60.448L131.288 72L129.016 72L121.944 62.144L121.912 62.144L121.912 72L120.248 72L120.248 60.448ZM138.035 60.448L139.987 60.448L145.923 72L144.019 72L142.531 68.992L135.443 68.992L133.955 72L132.099 72L138.035 60.448ZM139.011 61.856L136.115 67.68L141.891 67.68L139.011 61.856ZM146.686 60.448L152.318 60.448C155.598 60.448 156.734 61.392 156.734 63.472C156.734 64.96 155.678 65.968 154.094 66.192L154.094 66.224C155.71 66.432 156.078 67.072 156.398 69.2L156.478 69.712C156.638 70.768 156.814 71.52 157.022 72L155.262 72C155.102 71.552 155.006 71.072 154.846 70.176L154.67 69.2C154.526 68.432 154.414 67.84 154.126 67.536C153.63 67.008 152.814 66.848 151.438 66.848L148.35 66.848L148.35 72L146.686 72L146.686 60.448ZM148.35 65.536L152.19 65.536C154.078 65.536 154.974 64.992 154.974 63.648C154.974 62.224 154.174 61.76 152.206 61.76L148.35 61.76L148.35 65.536ZM158.949 60.448L167.589 60.448L167.589 61.76L160.613 61.76L160.613 65.408L167.141 65.408L167.141 66.72L160.613 66.72L160.613 70.688L167.781 70.688L167.781 72L158.949 72L158.949 60.448ZM170.185 70.24L171.945 70.24L171.945 72L170.185 72L170.185 70.24ZM192.221 66.224C192.221 68.96 190.589 72.304 185.725 72.304C180.909 72.304 179.229 69.008 179.229 66.224C179.229 63.488 180.861 60.144 185.725 60.144C190.541 60.144 192.221 63.44 192.221 66.224ZM185.725 70.992C188.493 70.992 190.461 69.104 190.461 66.224C190.461 63.408 188.557 61.456 185.709 61.456C182.957 61.456 180.989 63.36 180.989 66.224C180.989 69.104 182.957 70.992 185.725 70.992ZM206.075 63.44L204.315 63.44C203.947 62.112 202.683 61.456 200.555 61.456C197.387 61.456 195.563 63.504 195.563 66.208C195.563 68.72 197.291 70.992 200.683 70.992C201.899 70.992 203.291 70.736 204.523 70.256L204.523 67.28L200.827 67.28L200.827 65.968L206.187 65.968L206.187 71.184C204.267 71.984 202.427 72.304 200.619 72.304C196.091 72.304 193.803 69.632 193.803 66.224C193.803 63.376 195.563 60.144 200.411 60.144C203.915 60.144 205.723 61.264 206.075 63.44ZM208.474 60.448L210.746 60.448L217.818 70.304L217.85 70.304L217.85 60.448L219.514 60.448L219.514 72L217.242 72L210.17 62.144L210.138 62.144L210.138 72L208.474 72L208.474 60.448ZM221.669 60.448L223.333 60.448L223.333 72L221.669 72L221.669 60.448ZM240.453 63.52L238.693 63.52C238.549 62.128 237.317 61.456 235.029 61.456C233.365 61.456 231.973 62.272 231.973 63.552C231.973 64.688 233.189 64.96 233.973 65.088L238.005 65.776C240.357 66.176 240.821 67.552 240.821 68.608C240.821 70.912 238.757 72.304 235.333 72.304C232.005 72.304 230.149 71.056 229.941 68.544L231.701 68.544C231.749 70.096 233.237 70.992 235.429 70.992C237.781 70.992 239.157 70.08 239.157 68.784C239.157 67.168 236.885 67.104 234.629 66.816C232.069 66.496 230.309 65.84 230.309 63.616C230.309 61.472 232.149 60.144 235.349 60.144C238.373 60.144 240.325 61.248 240.453 63.52ZM242.669 60.448L251.309 60.448L251.309 61.76L244.333 61.76L244.333 65.408L250.861 65.408L250.861 66.72L244.333 66.72L244.333 70.688L251.501 70.688L251.501 72L242.669 72L242.669 60.448ZM265.44 63.44L263.68 63.44C263.312 62.112 262.048 61.456 259.92 61.456C256.752 61.456 254.928 63.504 254.928 66.208C254.928 68.72 256.656 70.992 260.048 70.992C261.264 70.992 262.656 70.736 263.888 70.256L263.888 67.28L260.192 67.28L260.192 65.968L265.552 65.968L265.552 71.184C263.632 71.984 261.792 72.304 259.984 72.304C255.456 72.304 253.168 69.632 253.168 66.224C253.168 63.376 254.928 60.144 259.776 60.144C263.28 60.144 265.088 61.264 265.44 63.44ZM267.839 60.448L270.111 60.448L277.183 70.304L277.215 70.304L277.215 60.448L278.879 60.448L278.879 72L276.607 72L269.535 62.144L269.503 62.144L269.503 72L267.839 72L267.839 60.448ZM293.69 66.224C293.69 68.96 292.058 72.304 287.194 72.304C282.378 72.304 280.698 69.008 280.698 66.224C280.698 63.488 282.33 60.144 287.194 60.144C292.01 60.144 293.69 63.44 293.69 66.224ZM287.194 70.992C289.962 70.992 291.93 69.104 291.93 66.224C291.93 63.408 290.026 61.456 287.178 61.456C284.426 61.456 282.458 63.36 282.458 66.224C282.458 69.104 284.426 70.992 287.194 70.992ZM300.619 60.448L309.259 60.448L309.259 61.76L302.283 61.76L302.283 65.408L308.811 65.408L308.811 66.72L302.283 66.72L302.283 70.688L309.451 70.688L309.451 72L300.619 72L300.619 60.448ZM302.667 57.456L304.619 57.456L306.443 59.696L305.131 59.696L302.667 57.456ZM316.672 60.448L318.336 60.448L318.336 70.688L324.992 70.6881L324.992 72.0001L316.672 72L316.672 60.448ZM326.704 60.4481L328.112 60.4481L328.112 63.8721L326.704 63.8721L326.704 60.4481ZM330.946 60.4481L332.61 60.4481L332.61 72.0001L330.946 72.0001L330.946 60.4481ZM334.769 60.4481L337.041 60.4481L344.113 70.3041L344.145 70.3041L344.145 60.4481L345.809 60.4481L345.809 72.0001L343.537 72.0001L336.465 62.1441L336.433 62.1441L336.433 72.0001L334.769 72.0001L334.769 60.4481ZM347.964 60.4481L349.628 60.4481L349.628 72.0001L347.964 72.0001L347.964 60.4481ZM351.13 60.4481L361.21 60.4481L361.21 62.2081L352.826 70.6881L361.466 70.6881L361.466 72.0001L350.778 72.0001L350.778 70.4961L359.45 61.7601L351.13 61.7601L351.13 60.4481ZM362.622 60.4481L364.286 60.4481L364.286 72.0001L362.622 72.0001L362.622 60.4481ZM379.052 66.2241C379.052 68.9601 377.42 72.3041 372.556 72.3041C367.74 72.3041 366.06 69.0081 366.06 66.2241C366.06 63.4881 367.692 60.1441 372.556 60.1441C377.372 60.1441 379.052 63.4401 379.052 66.2241ZM372.556 70.9921C375.324 70.9921 377.292 69.1041 377.292 66.2241C377.292 63.4081 375.388 61.4561 372.54 61.4561C369.788 61.4561 367.82 63.3601 367.82 66.2241C367.82 69.1041 369.788 70.9921 372.556 70.9921ZM385.885 60.4481L390.365 60.4481C394.957 60.4481 397.261 62.0961 397.261 66.3521C397.261 70.1121 394.877 72.0001 390.621 72.0001L385.885 72.0001L385.885 60.4481ZM387.549 70.6881L390.717 70.6881C393.805 70.6881 395.501 69.1681 395.501 66.2241C395.501 62.9121 393.789 61.7601 390.269 61.7601L387.549 61.7601L387.549 70.6881ZM399.032 60.4481L400.696 60.4481L400.696 72.0001L399.032 72.0001L399.032 60.4481ZM47.1921 83.224C47.1921 84.904 46.4081 86.584 45.0641 87.656L45.0641 87.688L48.2641 87.688L48.2641 89L43.0001 89C42.2641 89.224 41.4001 89.304 40.6961 89.304C35.9921 89.304 34.2001 86.136 34.2001 83.224C34.2001 80.536 35.8001 77.144 40.6961 77.144C45.3361 77.144 47.1921 80.232 47.1921 83.224ZM40.6961 87.992C43.4961 87.992 45.4321 86.072 45.4321 83.224C45.4321 80.36 43.4961 78.456 40.6641 78.456C38.0081 78.456 35.9601 80.28 35.9601 83.224C35.9601 86.04 37.8641 87.992 40.6961 87.992ZM49.1587 77.448L50.8227 77.448L50.8227 84.44C50.8227 86.632 52.1667 87.992 54.5347 87.992C56.9187 87.992 58.2467 86.632 58.2467 84.44L58.2467 77.448L59.9107 77.448L59.9107 84.376C59.9107 87.416 57.9107 89.304 54.5347 89.304C51.1587 89.304 49.1587 87.416 49.1587 84.376L49.1587 77.448ZM66.5206 77.448L68.4726 77.448L74.4086 89L72.5046 89L71.0166 85.992L63.9286 85.992L62.4406 89L60.5846 89L66.5206 77.448ZM67.4966 78.856L64.6006 84.68L70.3766 84.68L67.4966 78.856ZM75.5717 77.448L77.2357 77.448L77.2357 87.688L83.8917 87.688L83.8917 89L75.5717 89L75.5717 77.448ZM96.3236 80.488L94.4676 80.488C94.2276 79.208 93.1396 78.456 91.2196 78.456C88.3876 78.456 86.6116 80.168 86.6116 83.224C86.6116 86.28 88.3876 87.992 91.2196 87.992C93.0116 87.992 94.3716 87.144 94.6276 85.784L96.4836 85.784C96.1636 88.04 94.1476 89.304 90.8996 89.304C86.7076 89.304 84.8516 86.344 84.8516 83.224C84.8516 80.52 86.4676 77.144 91.3476 77.144C94.0356 77.144 96.1796 78.488 96.3236 80.488ZM110.783 83.224C110.783 85.96 109.151 89.304 104.287 89.304C99.4707 89.304 97.7907 86.008 97.7907 83.224C97.7907 80.488 99.4227 77.144 104.287 77.144C109.103 77.144 110.783 80.44 110.783 83.224ZM104.287 87.992C107.055 87.992 109.023 86.104 109.023 83.224C109.023 80.408 107.119 78.456 104.271 78.456C101.519 78.456 99.5507 80.36 99.5507 83.224C99.5507 86.104 101.519 87.992 104.287 87.992ZM122.605 80.52L120.845 80.52C120.701 79.128 119.469 78.456 117.181 78.456C115.517 78.456 114.125 79.272 114.125 80.552C114.125 81.688 115.341 81.96 116.125 82.088L120.157 82.776C122.509 83.176 122.973 84.552 122.973 85.608C122.973 87.912 120.909 89.304 117.485 89.304C114.157 89.304 112.301 88.056 112.093 85.544L113.853 85.544C113.901 87.096 115.389 87.992 117.581 87.992C119.933 87.992 121.309 87.08 121.309 85.784C121.309 84.168 119.037 84.104 116.781 83.816C114.221 83.496 112.461 82.84 112.461 80.616C112.461 78.472 114.301 77.144 117.501 77.144C120.525 77.144 122.477 78.248 122.605 80.52ZM129.221 77.448L131.173 77.448L137.109 89L135.205 89L133.717 85.992L126.629 85.992L125.141 89L123.285 89L129.221 77.448ZM130.197 78.856L127.301 84.68L133.077 84.68L130.197 78.856ZM142.93 77.448L147.41 77.448C152.002 77.448 154.306 79.096 154.306 83.352C154.306 87.112 151.922 89 147.666 89L142.93 89L142.93 77.448ZM144.594 87.688L147.762 87.688C150.85 87.688 152.546 86.168 152.546 83.224C152.546 79.912 150.834 78.76 147.314 78.76L144.594 78.76L144.594 87.688ZM156.077 77.448L157.741 77.448L157.741 89L156.077 89L156.077 77.448ZM164.861 77.448L167.133 77.448L174.205 87.304L174.237 87.304L174.237 77.448L175.901 77.448L175.901 89L173.629 89L166.557 79.144L166.525 79.144L166.525 89L164.861 89L164.861 77.448ZM178.248 77.448L179.912 77.448L179.912 84.44C179.912 86.632 181.256 87.992 183.624 87.992C186.008 87.992 187.336 86.632 187.336 84.44L187.336 77.448L189 77.448L189 84.376C189 87.416 187 89.304 183.624 89.304C180.248 89.304 178.248 87.416 178.248 84.376L178.248 77.448ZM203.955 83.224C203.955 85.96 202.323 89.304 197.459 89.304C192.643 89.304 190.963 86.008 190.963 83.224C190.963 80.488 192.595 77.144 197.459 77.144C202.275 77.144 203.955 80.44 203.955 83.224ZM197.459 87.992C200.227 87.992 202.195 86.104 202.195 83.224C202.195 80.408 200.291 78.456 197.443 78.456C194.691 78.456 192.723 80.36 192.723 83.224C192.723 86.104 194.691 87.992 197.459 87.992ZM204.151 77.448L205.991 77.448L210.519 87.592L215.031 77.448L216.791 77.448L211.479 89L209.447 89L204.151 77.448ZM230.035 83.224C230.035 85.96 228.403 89.304 223.539 89.304C218.723 89.304 217.043 86.008 217.043 83.224C217.043 80.488 218.675 77.144 223.539 77.144C228.355 77.144 230.035 80.44 230.035 83.224ZM223.539 87.992C226.307 87.992 228.275 86.104 228.275 83.224C228.275 80.408 226.371 78.456 223.523 78.456C220.771 78.456 218.803 80.36 218.803 83.224C218.803 86.104 220.771 87.992 223.539 87.992ZM232.073 87.24L233.833 87.24L233.833 89L232.073 89L232.073 87.24Z" fill="white"/>
<path fill-rule="evenodd" clip-rule="evenodd" d="M198.239 1514.37C201.522 1514.22 204.171 1514.82 206.04 1516.24C207.924 1517.67 208.945 1519.89 209.081 1522.81C209.24 1526.25 208.329 1528.86 206.415 1530.63C204.515 1532.39 201.697 1533.27 198.183 1533.43L195.148 1533.57L194.267 1514.56L198.239 1514.37ZM205.493 1516.96C203.857 1515.72 201.452 1515.13 198.282 1515.28L195.213 1515.42L196.011 1532.63L198.14 1532.53C201.549 1532.37 204.121 1531.52 205.8 1529.96C207.466 1528.42 208.327 1526.11 208.176 1522.85C208.05 1520.13 207.113 1518.19 205.493 1516.96Z" fill="white"/>
<path fill-rule="evenodd" clip-rule="evenodd" d="M208.51 1494.92C216.182 1494.57 222.406 1495.73 227.362 1498.2L227.837 1498.45C236.572 1503.21 240.922 1512.01 241.374 1521.78C241.833 1531.67 238.059 1540.36 230.648 1545.87C225.203 1549.96 217.776 1551.85 208.817 1552.26L196.946 1552.82L198.272 1581.39L163.687 1583L159.709 1497.2L208.51 1494.92ZM227.41 1499.25C222.559 1496.7 216.355 1495.47 208.553 1495.83L160.654 1498.06L164.549 1582.05L197.325 1580.52L196 1551.95L208.775 1551.36C217.652 1550.94 224.869 1549.08 230.106 1545.14C237.247 1539.83 240.916 1531.45 240.47 1521.82C240.028 1512.3 235.808 1503.82 227.41 1499.25Z" fill="white"/>
<path fill-rule="evenodd" clip-rule="evenodd" d="M289.036 1511.33C290.853 1511.24 292.385 1511.53 293.657 1512.32C294.93 1513.11 295.889 1514.38 296.624 1516.15C298.083 1519.66 298.723 1525.31 299.112 1533.7C299.45 1540.99 299.306 1546.7 298.091 1550.64C297.481 1552.62 296.591 1554.18 295.325 1555.28C294.053 1556.38 292.44 1556.97 290.451 1557.07C288.82 1557.14 287.377 1556.81 286.129 1556C284.885 1555.18 283.873 1553.91 283.057 1552.17C281.434 1548.69 280.536 1543.23 280.173 1535.41C279.753 1526.35 280.211 1520.44 281.639 1516.74C282.359 1514.88 283.335 1513.56 284.59 1512.68C285.844 1511.8 287.336 1511.41 289.036 1511.33ZM293.179 1513.09C292.113 1512.43 290.781 1512.15 289.078 1512.23C287.493 1512.31 286.182 1512.67 285.108 1513.42C284.035 1514.17 283.156 1515.33 282.484 1517.07C281.131 1520.57 280.658 1526.31 281.078 1535.37C281.44 1543.18 282.336 1548.48 283.878 1551.78C284.645 1553.42 285.56 1554.54 286.624 1555.24C287.684 1555.93 288.931 1556.23 290.409 1556.16C292.234 1556.08 293.642 1555.54 294.733 1554.59C295.831 1553.64 296.648 1552.24 297.227 1550.37C298.389 1546.6 298.546 1541.04 298.207 1533.74C297.817 1525.32 297.176 1519.84 295.788 1516.5C295.101 1514.84 294.245 1513.75 293.179 1513.09Z" fill="white"/>
<path fill-rule="evenodd" clip-rule="evenodd" d="M337.721 1351.47L305.566 1352.96L305.906 1360.32L335.597 1358.94L336.7 1382.74L307.009 1384.12L307.366 1391.83L340.577 1390.29L341.685 1414.21L336.115 1414.47L336.767 1428.53L336.315 1428.55L305.199 1430L305.621 1439.09L334.507 1437.74L334.959 1437.72L334.98 1438.18L336.01 1460.38L306.671 1461.75L308.052 1491.52C323.692 1497.07 332.998 1511.19 333.966 1532.08C334.616 1546.1 330.918 1557.65 323.598 1565.86C316.277 1574.07 305.377 1578.88 291.727 1579.51C278.137 1580.15 266.902 1576.43 258.901 1569.04C250.901 1561.65 246.186 1550.63 245.544 1536.79C244.999 1525.04 247.304 1515.14 252.173 1507.44C256.988 1499.83 264.29 1494.4 273.741 1491.45L269.9 1408.58L273.978 1408.39L270.376 1330.63L336.612 1327.55L337.721 1351.47ZM289.937 1489.82C289.504 1489.83 289.068 1489.84 288.629 1489.86C285.701 1490 282.91 1490.31 280.262 1490.79C279.967 1490.84 279.675 1490.9 279.384 1490.96C277.64 1491.3 275.958 1491.72 274.342 1492.21C264.913 1495.08 257.683 1500.42 252.938 1507.93C248.191 1515.43 245.909 1525.13 246.447 1536.74C247.081 1550.41 251.726 1561.17 259.515 1568.37C267.303 1575.56 278.285 1579.23 291.686 1578.61C305.143 1577.98 315.794 1573.25 322.922 1565.26C330.051 1557.26 333.703 1545.96 333.062 1532.12C332.099 1511.37 322.846 1497.61 307.466 1492.28C306.779 1492.04 306.077 1491.82 305.364 1491.61C304.862 1491.47 304.354 1491.33 303.84 1491.21C303.441 1491.11 303.038 1491.01 302.632 1490.93C301.915 1490.77 301.187 1490.63 300.448 1490.5C300.004 1490.43 299.556 1490.36 299.104 1490.3C298.371 1490.2 297.627 1490.11 296.873 1490.04C296.84 1490.04 296.808 1490.03 296.775 1490.03C296.406 1489.99 296.034 1489.96 295.66 1489.94C295.43 1489.92 295.199 1489.91 294.968 1489.89C293.336 1489.8 291.659 1489.77 289.937 1489.82ZM270.845 1409.45L274.635 1491.18C274.675 1491.17 274.716 1491.15 274.757 1491.14C274.903 1491.1 275.05 1491.06 275.197 1491.02C275.325 1490.98 275.454 1490.95 275.582 1490.91C275.719 1490.87 275.856 1490.84 275.993 1490.8C276.137 1490.77 276.281 1490.73 276.426 1490.69C276.576 1490.65 276.728 1490.62 276.88 1490.58C276.991 1490.55 277.102 1490.53 277.214 1490.5C277.368 1490.46 277.523 1490.43 277.678 1490.39C277.847 1490.35 278.017 1490.32 278.187 1490.28C278.277 1490.26 278.367 1490.24 278.457 1490.22C278.646 1490.18 278.835 1490.14 279.024 1490.1C279.134 1490.08 279.245 1490.06 279.356 1490.04C279.531 1490 279.706 1489.97 279.882 1489.94C280.018 1489.91 280.154 1489.89 280.29 1489.86C280.426 1489.84 280.562 1489.82 280.698 1489.79C280.852 1489.77 281.007 1489.74 281.162 1489.72C281.315 1489.69 281.468 1489.67 281.622 1489.64C281.76 1489.62 281.899 1489.6 282.038 1489.58C282.218 1489.55 282.398 1489.53 282.579 1489.5C282.665 1489.49 282.751 1489.48 282.838 1489.47L283.072 1489.44C283.219 1489.42 283.366 1489.4 283.513 1489.38C283.628 1489.37 283.744 1489.35 283.859 1489.34C284.063 1489.32 284.269 1489.29 284.474 1489.27C284.568 1489.26 284.662 1489.25 284.756 1489.24C285.333 1489.18 285.916 1489.13 286.505 1489.09C286.554 1489.08 286.603 1489.08 286.652 1489.07C286.93 1489.05 287.209 1489.03 287.489 1489.02C287.529 1489.01 287.57 1489.01 287.61 1489.01C287.934 1488.99 288.26 1488.97 288.587 1488.96C289.031 1488.94 289.473 1488.92 289.911 1488.91C289.916 1488.91 289.922 1488.91 289.927 1488.91C290.329 1488.9 290.729 1488.89 291.127 1488.89H291.872C292.018 1488.89 292.164 1488.89 292.309 1488.89C292.34 1488.89 292.371 1488.89 292.401 1488.89C292.747 1488.9 293.091 1488.91 293.432 1488.92C293.521 1488.92 293.611 1488.92 293.699 1488.92C294.013 1488.94 294.324 1488.95 294.634 1488.97C294.741 1488.97 294.847 1488.98 294.954 1488.98C295.266 1489 295.577 1489.02 295.887 1489.04C295.967 1489.05 296.047 1489.06 296.126 1489.06C296.443 1489.09 296.758 1489.12 297.071 1489.15C297.156 1489.15 297.241 1489.16 297.326 1489.17C297.653 1489.2 297.978 1489.24 298.301 1489.28C298.355 1489.29 298.41 1489.29 298.464 1489.3C298.804 1489.34 299.142 1489.39 299.478 1489.43C299.519 1489.44 299.56 1489.45 299.6 1489.45C299.932 1489.5 300.262 1489.55 300.589 1489.61C300.656 1489.62 300.722 1489.63 300.789 1489.64C301.111 1489.7 301.432 1489.76 301.75 1489.82C301.874 1489.84 301.997 1489.87 302.119 1489.89C302.17 1489.9 302.221 1489.91 302.271 1489.92C302.408 1489.95 302.544 1489.98 302.679 1490.01C302.736 1490.02 302.794 1490.03 302.851 1490.04C303.783 1490.25 304.697 1490.48 305.592 1490.73C305.633 1490.75 305.674 1490.76 305.714 1490.77C306.191 1490.91 306.664 1491.05 307.13 1491.21L305.725 1460.88L335.063 1459.52L334.095 1438.67L304.758 1440.04L304.252 1429.14L335.821 1427.67L335.209 1414.51L274.393 1417.34L274.02 1409.3L270.845 1409.45ZM271.323 1331.49L274.883 1408.35L275.335 1408.33L275.686 1415.92L335.6 1413.13L336.053 1413.11L336.072 1413.56L340.739 1413.34L339.715 1391.24L306.504 1392.78L306.063 1383.26L335.753 1381.88L334.735 1359.89L305.044 1361.27L304.619 1352.1L336.774 1350.6L335.75 1328.5L271.323 1331.49Z" fill="white"/>
<path fill-rule="evenodd" clip-rule="evenodd" d="M715.898 1522.89L700.33 1523.61L706.474 1490.95L707.357 1490.91L715.898 1522.89ZM701.432 1522.65L714.732 1522.03L706.996 1493.07L701.432 1522.65Z" fill="white"/>
<path fill-rule="evenodd" clip-rule="evenodd" d="M378.302 1422.63C382.54 1422.43 385.585 1422.81 387.61 1424C389.688 1425.23 390.613 1427.24 390.743 1430.04C390.891 1433.25 390.06 1435.69 388.016 1437.35C386.003 1438.99 382.892 1439.82 378.638 1440.02L376.074 1440.14L375.268 1422.77L378.302 1422.63ZM387.152 1424.79C385.369 1423.74 382.554 1423.34 378.344 1423.53L376.214 1423.63L376.936 1439.19L378.596 1439.11C382.791 1438.91 385.661 1438.1 387.445 1436.65C389.197 1435.22 389.978 1433.11 389.838 1430.08C389.717 1427.48 388.882 1425.8 387.152 1424.79Z" fill="white"/>
<path fill-rule="evenodd" clip-rule="evenodd" d="M473.15 1419.27C474.968 1419.19 476.5 1419.47 477.772 1420.26C479.045 1421.06 480.003 1422.32 480.739 1424.09C482.197 1427.6 482.837 1433.25 483.227 1441.65C483.564 1448.93 483.42 1454.64 482.206 1458.58C481.596 1460.56 480.705 1462.13 479.439 1463.22C478.168 1464.33 476.554 1464.92 474.565 1465.01C472.935 1465.09 471.491 1464.76 470.243 1463.94C468.999 1463.13 467.987 1461.86 467.172 1460.11C465.548 1456.63 464.65 1451.18 464.288 1443.35C463.868 1434.3 464.325 1428.38 465.754 1424.69C466.474 1422.83 467.45 1421.5 468.705 1420.62C469.959 1419.75 471.45 1419.35 473.15 1419.27ZM477.294 1421.04C476.227 1420.37 474.895 1420.1 473.193 1420.18C471.608 1420.25 470.297 1420.62 469.223 1421.37C468.15 1422.12 467.27 1423.28 466.599 1425.02C465.245 1428.52 464.773 1434.26 465.192 1443.31C465.555 1451.12 466.45 1456.42 467.992 1459.72C468.759 1461.37 469.675 1462.49 470.738 1463.18C471.798 1463.87 473.045 1464.17 474.524 1464.1C476.348 1464.02 477.756 1463.48 478.848 1462.54C479.945 1461.59 480.763 1460.19 481.341 1458.31C482.503 1454.54 482.66 1448.98 482.322 1441.69C481.931 1433.27 481.29 1427.78 479.903 1424.44C479.215 1422.79 478.359 1421.7 477.294 1421.04Z" fill="white"/>
<path fill-rule="evenodd" clip-rule="evenodd" d="M630.769 1391.78L636.601 1391.51L640.463 1474.82L657.358 1474.03L658.322 1494.83L658.33 1494.99L658.231 1495.12L625.459 1538.44L660.638 1536.8L661.091 1536.78L661.111 1537.24L662.063 1557.76L684.956 1473.06L685.042 1472.74L728.91 1470.7L729.24 1470.68L729.355 1470.99L760.735 1555.21L724.787 1556.88L720.868 1543.39L697.168 1544.5L694.467 1557.95L694.398 1558.29L694.044 1558.31L586.264 1563.33L585.295 1542.41L585.287 1542.25L585.386 1542.12L618.161 1498.92L584.862 1500.47L584.409 1500.49L583.457 1479.97L574.501 1480.39L578.343 1563.24L578.364 1563.7L537.457 1565.6L537.336 1565.3L517.614 1516.64L519.922 1566.42L491.909 1567.72L488.1 1485.58C485.409 1486.32 482.562 1486.85 479.569 1487.17L480.39 1504.88L480.411 1505.33L448.256 1506.83L448.64 1515.09L477.878 1513.73L478.33 1513.71L479.392 1536.6L449.701 1537.99L450.101 1546.6L483.312 1545.06L484.379 1568.07L483.926 1568.09L417.991 1571.16L414.128 1487.86L408.643 1488.11L409.634 1509.45L388.744 1510.42L391.618 1572.39L357.033 1574L354.159 1512.03L333.841 1512.98L333.388 1513L333.368 1512.55L332.283 1489.16L345.389 1488.55L341.526 1405.25L347.897 1404.95L344.296 1327.19L410.532 1324.11L411.64 1348.03L379.484 1349.52L379.825 1356.88L409.516 1355.5L410.618 1379.3L380.928 1380.68L381.285 1388.39L414.496 1386.85L415.477 1408.03C419.763 1411.58 422.24 1416.92 422.556 1423.73C422.81 1429.21 421.788 1433.52 419.171 1436.99C416.819 1440.11 413.213 1442.49 408.22 1444.43C413.122 1445.19 416.312 1446.45 418.491 1448.75C420.761 1451.16 421.867 1454.64 422.789 1459.64L422.971 1460.66L425.079 1473.16C425.86 1477.49 426.869 1481.55 427.939 1484.71L452.971 1483.54C438.992 1477.21 430.534 1463.62 429.658 1444.73C428.989 1430.3 432.621 1418.66 440.02 1410.46C440.159 1410.31 440.3 1410.15 440.442 1410C440.569 1409.87 440.697 1409.73 440.826 1409.6L437.369 1409.76L434.499 1347.79L413.727 1348.76L412.581 1324.01L489.732 1320.42L490.878 1345.17L469.988 1346.14L472.34 1396.92L472.702 1396.9C482.603 1396.44 491.165 1398.25 498.106 1402.15L494.31 1320.21L529.565 1318.57L533.167 1396.32L543.41 1395.85L539.807 1318.1L582.315 1316.12L600.408 1361.99L598.249 1315.38L627.167 1314.03L630.769 1391.78ZM333.229 1490.03L334.251 1512.05L354.57 1511.1L355.023 1511.08L357.895 1573.05L390.671 1571.52L387.819 1510.01L387.798 1509.56L408.687 1508.58L407.664 1486.56L333.229 1490.03ZM414.958 1486.22L415.012 1487.36L418.853 1570.21L483.432 1567.21L482.448 1546.01L449.69 1547.53L449.238 1547.55L448.755 1537.12L478.445 1535.74L477.466 1514.66L447.777 1516.04L447.309 1505.96L479.464 1504.46L478.48 1483.26L414.958 1486.22ZM547.319 1480.06L549.67 1530.76L548.797 1530.95L529.057 1480.91L528.92 1480.92L488.876 1482.78L492.771 1566.77L518.976 1565.55L516.587 1514.03L517.459 1513.84L538.055 1564.66L577.418 1562.83L573.523 1478.84L547.319 1480.06ZM584.288 1478.34L584.342 1479.48L584.355 1479.77L585.271 1499.54L620.055 1497.92L586.206 1542.54L587.127 1562.38L661.211 1558.93L660.228 1537.73L623.569 1539.44L657.409 1494.7L656.494 1474.98L584.288 1478.34ZM685.743 1473.62L662.702 1558.86L693.648 1557.42L696.42 1543.62L696.774 1543.61L721.539 1542.45L721.638 1542.8L725.457 1555.94L759.452 1554.36L728.622 1471.62L685.743 1473.62ZM530.632 1482.43L548.638 1528.08L546.488 1481.69L530.632 1482.43ZM342.472 1406.11L346.293 1488.51L378.482 1487.01L377.139 1458.03L380.759 1457.86C384.4 1457.69 386.69 1458.05 388.227 1459.56C388.987 1460.31 389.531 1461.31 389.979 1462.58C390.426 1463.84 390.789 1465.41 391.172 1467.31C391.502 1468.95 391.82 1470.63 392.137 1472.3L392.153 1472.39C392.419 1473.79 392.685 1475.2 392.962 1476.59C393.268 1478.14 393.586 1479.68 393.928 1481.18L394.127 1481.99L394.715 1484.34C394.877 1484.98 395.045 1485.61 395.217 1486.23L408.528 1485.61L408.602 1487.2L414.085 1486.95L414.012 1485.36L414.464 1485.34L426.997 1484.75C425.941 1481.58 424.955 1477.57 424.189 1473.32L422.079 1460.81C421.115 1455.25 420.048 1451.72 417.833 1449.37C415.629 1447.04 412.21 1445.81 406.317 1445.08L406.224 1444.2C412.027 1442.18 415.991 1439.7 418.449 1436.45C420.9 1433.2 421.899 1429.11 421.651 1423.77C421.362 1417.52 419.208 1412.64 415.536 1409.28L415.605 1410.77L348.313 1413.9L347.939 1405.86L342.472 1406.11ZM387.592 1460.21C386.356 1458.99 384.435 1458.6 380.802 1458.77L378.085 1458.9L379.387 1486.97L394.29 1486.28C393.931 1484.96 393.594 1483.6 393.267 1482.28L393.248 1482.21L393.118 1481.68L393.078 1481.52L393.049 1481.4C392.387 1478.49 391.815 1475.47 391.253 1472.5L391.248 1472.47C390.93 1470.79 390.613 1469.12 390.284 1467.49C390.016 1466.16 389.762 1465.02 389.488 1464.04C389.372 1463.63 389.252 1463.24 389.125 1462.88C388.701 1461.68 388.217 1460.82 387.592 1460.21ZM498.156 1403.23C491.3 1399.23 482.746 1397.34 472.744 1397.81L472.453 1397.82L472.383 1397.83L472.859 1408.11L442.164 1409.53C441.657 1410.03 441.166 1410.54 440.691 1411.07C433.493 1419.05 429.902 1430.43 430.563 1444.69C431.462 1464.07 440.43 1477.64 455.059 1483.45L479.343 1482.32L479.526 1486.26C482.528 1485.94 485.375 1485.4 488.057 1484.65L487.93 1481.92L488.383 1481.9L496.137 1481.53C510.316 1474.32 518.089 1459.76 517.176 1440.06C516.523 1425.98 512.045 1415.12 504.449 1407.93C504.002 1407.51 503.543 1407.1 503.074 1406.7L498.327 1406.92L498.156 1403.23ZM630.811 1392.69L631.184 1400.74L590.145 1402.65L589.618 1402.68L583.455 1445.2L582.564 1445.23L572.573 1399.79L572.742 1403.46L543.825 1404.81L543.451 1396.75L533.209 1397.23L533.582 1405.28L525.882 1405.64L529.33 1479.99L529.662 1479.97L529.696 1480.06L529.782 1480.28L530.28 1481.54L546.446 1480.79L546.393 1479.65L546.373 1479.2L546.824 1479.18L556.121 1478.74L553.391 1419.88L554.282 1419.74L569.397 1478.12L574.386 1477.89L574.459 1479.48L583.416 1479.07L583.342 1477.47L583.794 1477.45L599.491 1476.72L609.14 1417.19L610.039 1417.24L612.768 1476.1L639.559 1474.86L635.738 1392.46L630.811 1392.69ZM504.383 1406.64C504.615 1406.85 504.844 1407.06 505.071 1407.27C512.881 1414.66 517.42 1425.77 518.081 1440.02C518.971 1459.22 511.711 1473.76 498.227 1481.44L528.426 1480.03L524.978 1405.68L504.383 1406.64ZM557.025 1478.7L568.472 1478.17L554.498 1424.19L557.025 1478.7ZM600.416 1476.68L611.863 1476.15L609.336 1421.63L600.416 1476.68ZM572.328 1394.5H572.337L582.914 1442.61L588.913 1401.22L570.538 1355.87L572.328 1394.5ZM499.19 1405.97L532.636 1404.42L528.703 1319.52L495.257 1321.08L499.19 1405.97ZM544.687 1403.86L571.796 1402.6L569.388 1350.62L590.103 1401.74L630.238 1399.88L626.305 1314.98L599.196 1316.24L601.566 1367.39L581.71 1317.06L540.754 1318.96L544.687 1403.86ZM349.175 1412.95L414.658 1409.91L413.634 1387.8L380.423 1389.34L379.982 1379.82L409.672 1378.44L408.653 1356.45L378.963 1357.83L378.538 1348.66L410.693 1347.16L409.668 1325.06L345.242 1328.05L349.175 1412.95ZM438.233 1408.81L435.362 1346.84L414.59 1347.81L413.528 1324.88L488.868 1321.37L489.931 1344.3L469.041 1345.27L471.912 1407.24L438.233 1408.81Z" fill="white"/>
<path fill-rule="evenodd" clip-rule="evenodd" d="M130.579 1335.36C144.438 1334.72 154.587 1336.64 161.402 1341.28C168.275 1345.97 171.598 1353.32 172.051 1363.09L172.092 1364L139.091 1365.54L139.027 1364.66C138.883 1362.7 138.113 1361.26 136.884 1360.31C135.637 1359.36 133.812 1358.83 131.436 1358.94C129.457 1359.03 127.814 1359.38 126.461 1360.07C125.124 1360.76 124.02 1361.8 123.154 1363.38C121.387 1366.61 120.601 1372.05 121.017 1381.02L121.219 1385.37C121.569 1392.93 122.784 1397.43 124.734 1400C126.611 1402.47 129.295 1403.3 133.13 1403.12C135.746 1403 139.021 1402.25 141.31 1401.26L140.89 1392.2L129.39 1392.74L128.521 1373.99L174.104 1371.87L176.259 1418.39L175.596 1418.6C161.619 1423.04 146.495 1425.76 133.854 1426.35C118.97 1427.04 107.086 1423.57 98.7473 1416.18C90.405 1408.78 85.7467 1397.56 85.0742 1383.05C84.4092 1368.69 88.2253 1357.09 96.064 1348.9C103.897 1340.72 115.633 1336.06 130.579 1335.36ZM171.146 1363.14C170.258 1343.97 158.198 1334.99 130.621 1336.27L129.244 1336.34C100.54 1338.18 84.6868 1355.11 85.979 1383.01C87.2875 1411.25 103.827 1426.34 132.439 1425.49L133.811 1425.44C145.975 1424.88 160.476 1422.32 174.015 1418.15L175.322 1417.74L173.241 1372.82L129.469 1374.86L130.253 1391.79L141.753 1391.25L142.244 1401.84C139.829 1403.01 136.105 1403.89 133.172 1404.03L132.435 1404.05C125.176 1404.14 121.253 1400.37 120.39 1386.81L120.314 1385.42L120.112 1381.07C119.292 1363.36 123.058 1358.56 131.012 1358.05L131.394 1358.03C136.282 1357.81 139.411 1360.09 139.892 1364.19L139.93 1364.59L171.146 1363.14Z" fill="white"/>
<path fill-rule="evenodd" clip-rule="evenodd" d="M218.479 1353.04C226.928 1352.65 230.196 1354.62 230.447 1360.02C230.735 1366.26 227.222 1369.13 218.773 1369.52L216.66 1369.62L215.898 1353.16L218.479 1353.04ZM227.08 1355.14C225.417 1354.16 222.719 1353.75 218.522 1353.95L216.844 1354.02L217.522 1368.67L218.731 1368.62C222.896 1368.42 225.646 1367.62 227.315 1366.26C228.921 1364.95 229.677 1363 229.542 1360.07C229.426 1357.56 228.636 1356.05 227.08 1355.14Z" fill="white"/>
<path fill-rule="evenodd" clip-rule="evenodd" d="M233.163 1332.36C236.855 1332.19 240.9 1332.36 244.682 1333.02C248.217 1333.65 251.582 1334.71 254.214 1336.38L254.731 1336.73C259.863 1340.34 262.816 1346.15 263.165 1353.67C263.422 1359.22 262.389 1363.65 259.688 1367.23C257.509 1370.12 254.303 1372.37 250.011 1374.22C254.097 1375.01 256.945 1376.25 258.975 1378.4C261.343 1380.91 262.467 1384.51 263.39 1389.52L263.573 1390.54L265.679 1403.05C266.623 1408.27 267.895 1413.1 269.196 1416.37L269.665 1417.56L234.839 1419.18L234.631 1418.51C234.017 1416.55 233.488 1414.4 232.98 1412.35L232.764 1411.47L232.76 1411.46C232.094 1408.53 231.52 1405.5 230.956 1402.52L230.479 1400.01C230.32 1399.18 230.159 1398.36 229.995 1397.54C229.614 1395.65 229.265 1394.16 228.853 1392.99C228.441 1391.83 227.987 1391.04 227.43 1390.49C226.344 1389.43 224.608 1389.02 220.977 1389.18L218.713 1389.29L220.13 1419.86L185.227 1421.49L181.21 1334.77L233.163 1332.36ZM254.216 1337.47C249.113 1333.94 240.481 1332.93 233.205 1333.26L182.156 1335.64L186.089 1420.54L219.183 1419L217.767 1388.42L220.935 1388.28C228.211 1387.94 229.355 1389.77 230.883 1397.36C231.212 1399 231.528 1400.67 231.846 1402.35C232.411 1405.33 232.981 1408.34 233.643 1411.25C233.715 1411.54 233.787 1411.84 233.86 1412.13C234.305 1413.93 234.76 1415.78 235.272 1417.51L235.496 1418.24L268.355 1416.71C267.023 1413.36 265.738 1408.47 264.789 1403.21L262.68 1390.7C260.754 1379.59 258.355 1376.05 246.528 1374.6C258.034 1370.58 262.618 1364.72 262.28 1354.22L262.26 1353.71C261.922 1346.42 259.079 1340.9 254.216 1337.47Z" fill="white"/>
<path fill-rule="evenodd" clip-rule="evenodd" d="M682.162 1309.71C696.022 1309.06 706.171 1310.98 712.985 1315.63C719.858 1320.32 723.18 1327.66 723.633 1337.44L723.676 1338.35L690.675 1339.88L690.61 1339C690.467 1337.05 689.696 1335.6 688.466 1334.66C687.219 1333.7 685.396 1333.17 683.019 1333.28C681.041 1333.38 679.396 1333.72 678.043 1334.42C676.706 1335.1 675.604 1336.15 674.737 1337.73C672.97 1340.95 672.184 1346.39 672.6 1355.37L672.801 1359.72C673.151 1367.28 674.367 1371.78 676.318 1374.34C678.195 1376.81 680.878 1377.64 684.713 1377.46C687.329 1377.34 690.604 1376.6 692.893 1375.61L692.474 1366.55L680.973 1367.08L680.105 1348.34L725.687 1346.22L727.842 1392.74L727.179 1392.95C713.202 1397.39 698.077 1400.11 685.436 1400.69C670.553 1401.39 658.669 1397.92 650.331 1390.52C641.989 1383.12 637.33 1371.91 636.658 1357.39C635.993 1343.04 639.809 1331.43 647.648 1323.24C655.48 1315.06 667.216 1310.4 682.162 1309.71ZM722.73 1337.48C721.841 1318.32 709.781 1309.33 682.204 1310.61L680.827 1310.69C652.124 1312.52 636.269 1329.46 637.562 1357.35C638.87 1385.59 655.41 1400.68 684.023 1399.84L685.395 1399.79C697.559 1399.22 712.059 1396.67 725.598 1392.49L726.905 1392.08L724.824 1347.16L681.051 1349.2L681.836 1366.13L693.337 1365.6L693.827 1376.18C691.411 1377.35 687.689 1378.23 684.755 1378.37L684.018 1378.39C676.517 1378.49 672.577 1374.46 671.897 1359.76L671.696 1355.41C670.875 1337.7 674.642 1332.91 682.595 1332.4L682.978 1332.38C687.866 1332.15 690.994 1334.44 691.475 1338.53L691.513 1338.93L722.73 1337.48Z" fill="white"/>
<path fill-rule="evenodd" clip-rule="evenodd" d="M771.03 1305.1C783.201 1304.54 792.677 1306.32 799.238 1310.54C805.855 1314.81 809.388 1321.48 809.8 1330.37L809.842 1331.27L778.162 1332.75L778.07 1331.9C777.767 1329.12 777.178 1327.59 776.242 1326.74C775.323 1325.9 773.859 1325.52 771.275 1325.64C769.06 1325.75 767.352 1326.36 766.239 1327.25C765.149 1328.13 764.59 1329.3 764.655 1330.7C764.693 1331.52 764.934 1332.23 765.549 1332.88C766.189 1333.55 767.294 1334.23 769.183 1334.82L769.638 1334.95C770.733 1335.25 772.079 1335.51 773.724 1335.83L775.868 1336.25L789.536 1339.15C795.725 1340.47 801.644 1342.7 806.116 1346.63C810.619 1350.6 813.586 1356.24 813.956 1364.23C814.386 1373.52 811.681 1380.64 805.341 1386.2C798.587 1392.1 789.367 1395.86 773.739 1396.59C760.975 1397.18 750.814 1395.22 743.705 1390.57C736.544 1385.87 732.597 1378.51 732.139 1368.63L732.097 1367.72L765.827 1366.15L765.868 1367.06C766.034 1370.64 766.751 1372.76 767.966 1373.98C769.158 1375.17 771.035 1375.69 774.058 1375.55C778.356 1375.35 781.124 1372.46 780.961 1368.95C780.907 1367.78 780.465 1366.84 779.521 1366.02C778.542 1365.18 776.988 1364.45 774.675 1363.87L755.408 1359.22C750.098 1357.93 744.47 1356.18 740.078 1352.69C735.635 1349.17 732.524 1343.93 732.15 1335.86C731.724 1326.66 735 1319.21 741.687 1313.94C748.332 1308.71 758.256 1305.7 771.03 1305.1ZM808.895 1330.41C808.094 1313.13 795.246 1304.88 771.072 1306.01L769.892 1306.07C745.305 1307.53 732.24 1318.23 733.055 1335.82C733.78 1351.46 745.034 1355.77 755.62 1358.34L774.887 1362.98C779.647 1364.18 781.735 1366.08 781.866 1368.91C782.056 1373.02 778.794 1376.24 774.1 1376.45L773.528 1376.47C767.722 1376.59 765.291 1374.16 764.964 1367.1L733.044 1368.58C733.923 1387.57 747.902 1396.58 772.517 1395.73L773.697 1395.68C788.703 1394.98 797.62 1391.47 804.123 1386.05L804.745 1385.52C810.847 1380.17 813.471 1373.33 813.051 1364.27C812.332 1348.75 801.583 1342.65 789.349 1340.04L775.69 1337.14L773.553 1336.72C771.689 1336.36 770.147 1336.06 768.918 1335.69C765.227 1334.53 763.996 1332.95 763.78 1331.11L763.75 1330.74C763.597 1327.44 766.359 1325.11 770.799 1324.76L771.234 1324.74C776.514 1324.49 778.356 1326.17 778.97 1331.8L808.895 1330.41Z" fill="white"/>
<path d="M128.594 1498.73L129.912 1498.7L130.134 1506.82L135.407 1506.68L135.435 1507.72L128.845 1507.9L128.594 1498.73Z" fill="white"/>
<path d="M135.97 1498.53L137.288 1498.49L137.539 1507.66L136.221 1507.7L135.97 1498.53Z" fill="white"/>
<path d="M138.96 1498.45L145.462 1498.27L145.49 1499.31L140.306 1499.45L140.388 1502.45L145.319 1502.31L145.347 1503.36L140.417 1503.49L140.529 1507.58L139.211 1507.62L138.96 1498.45Z" fill="white"/>
<path d="M146.805 1498.23L153.649 1498.04L153.678 1499.09L148.152 1499.24L148.231 1502.13L153.402 1501.99L153.431 1503.03L148.259 1503.17L148.346 1506.32L154.024 1506.17L154.052 1507.21L147.056 1507.4L146.805 1498.23Z" fill="white"/>
<path d="M739.906 1469.2L748.975 1468.78L749.026 1469.9L745.151 1470.08L745.524 1478.12L744.207 1478.18L743.833 1470.14L739.958 1470.32L739.906 1469.2Z" fill="white"/>
<path d="M748.522 1468.8L749.915 1468.74L752.986 1476.66L753.011 1476.66L755.449 1468.48L757.223 1468.4L760.407 1476.31L760.433 1476.31L762.757 1468.14L764.151 1468.07L761.396 1477.38L759.573 1477.47L756.401 1469.55L756.375 1469.55L753.949 1477.73L752.125 1477.82L748.522 1468.8Z" fill="white"/>
</svg>
